HIERARCHY
ROOT Hips
{
	OFFSET 0.000000 0.000000 0.000000 
	CHANNELS 6 Xposition Yposition Zposition Zrotation Yrotation Xrotation
	JOINT LeftUpLeg
	{
		OFFSET 1.363060 -1.794630 0.839290 
		CHANNELS 3 Zrotation Yrotation Xrotation
		JOINT LeftLeg
		{
			OFFSET 2.448110 -6.726130 0.000000 
			CHANNELS 3 Zrotation Yrotation Xrotation
			JOINT LeftFoot
			{
				OFFSET 2.562200 -7.039590 0.000000 
				CHANNELS 3 Zrotation Yrotation Xrotation
				JOINT LeftToeBase
				{
					OFFSET 0.157640 -0.433110 2.322550 
					CHANNELS 3 Zrotation Yrotation Xrotation
					End Site
					{
						OFFSET 0.000000 0.000000 0.000000 
					}
				}
			}
		}
	}
	JOINT RightUpLeg
	{
		OFFSET -1.305520 -1.794630 0.839290 
		CHANNELS 3 Zrotation Yrotation Xrotation
		JOINT RightLeg
		{
			OFFSET -2.542530 -6.985550 0.000000 
			CHANNELS 3 Zrotation Yrotation Xrotation
			JOINT RightFoot
			{
				OFFSET -2.568260 -7.056230 0.000000 
				CHANNELS 3 Zrotation Yrotation Xrotation
				JOINT RightToeBase
				{
					OFFSET -0.164730 -0.452590 2.363150 
					CHANNELS 3 Zrotation Yrotation Xrotation
					End Site
					{
						OFFSET 0.000000 0.000000 0.000000 
					}
				}
			}
		}
	}
	JOINT Spine
	{
		OFFSET 0.028270 2.035590 -0.193380 
		CHANNELS 3 Zrotation Yrotation Xrotation
		JOINT Spine1
		{
			OFFSET 0.056720 2.048850 -0.042750 
			CHANNELS 3 Zrotation Yrotation Xrotation
			JOINT Neck1
			{
				OFFSET -0.054170 1.746240 0.172020 
				CHANNELS 3 Zrotation Yrotation Xrotation
				JOINT Head
				{
					OFFSET 0.104070 1.761360 -0.123970 
					CHANNELS 3 Zrotation Yrotation Xrotation
					End Site
					{
						OFFSET 0.000000 0.000000 0.000000 
					}
				}
			}
			JOINT LeftArm
			{
				OFFSET 3.362410 1.200890 -0.311210 
				CHANNELS 3 Zrotation Yrotation Xrotation
				JOINT LeftForeArm
				{
					OFFSET 4.983000 -0.000000 -0.000000 
					CHANNELS 3 Zrotation Yrotation Xrotation
					JOINT LeftHand
					{
						OFFSET 3.483560 -0.000000 -0.000000 
						CHANNELS 3 Zrotation Yrotation Xrotation
						JOINT LeftHandIndex1
						{
							OFFSET 0.715260 -0.000000 -0.000000 
							CHANNELS 3 Zrotation Yrotation Xrotation
							End Site
							{
								OFFSET 0.000000 0.000000 0.000000 
							}
						}
					}
				}
			}
			JOINT RightArm
			{
				OFFSET -3.136600 1.374050 -0.404650 
				CHANNELS 3 Zrotation Yrotation Xrotation
				JOINT RightForeArm
				{
					OFFSET -5.241900 -0.000000 -0.000000 
					CHANNELS 3 Zrotation Yrotation Xrotation
					JOINT RightHand
					{
						OFFSET -3.444170 -0.000000 -0.000000 
						CHANNELS 3 Zrotation Yrotation Xrotation
						JOINT RightHandIndex1
						{
							OFFSET -0.622530 -0.000000 -0.000000 
							CHANNELS 3 Zrotation Yrotation Xrotation
							End Site
							{
								OFFSET 0.000000 0.000000 0.000000 
							}
						}
					}
				}
			}
		}
	}
}
MOTION
Frames: 9
Frame Time: 0.041667
10.184684 15.977002 21.649221 179.228517 -11.234813 -148.941173 -13.855859 -31.759909 -52.060445 9.507234 22.510441 63.021860 -2.458296 -23.533949 -21.049811 1.787600 8.408800 23.962800 26.925579 17.833825 -50.673047 -9.097442 -23.086005 63.142050 -3.872423 -0.524369 -38.623731 -3.764200 11.839800 -35.167600 1.231702 0.367039 -5.295422 -0.399208 -0.231706 7.329041 20.020474 4.570724 11.571301 5.081200 2.887400 1.838400 -104.586176 -6.789281 30.848591 14.414089 -16.911792 -2.902916 -1.849681 0.684980 2.209848 -7.125000 0.000000 0.000000 96.782238 2.041097 17.495931 -11.701335 21.124647 -2.994259 1.140393 3.702754 -0.272845 7.125000 0.000000 0.000000 
10.188950 15.976783 21.611047 179.101774 -12.369829 -149.175775 -14.055851 -32.269429 -51.402593 9.376172 22.396153 62.594427 -2.547856 -23.652689 -20.706890 2.044000 8.957100 25.661200 27.358785 17.275683 -49.969402 -8.982942 -22.947660 62.793119 -3.886055 -1.138244 -38.919228 -3.856800 11.967400 -35.616800 1.232833 0.370549 -5.257537 -0.332410 -0.233222 7.576095 20.106994 4.536999 11.629200 5.191700 2.877500 1.832300 -104.374860 -6.691274 31.966489 14.568719 -17.192119 -2.996703 -1.872217 0.687759 1.962379 -7.125000 0.000000 0.000000 96.543091 1.366955 18.491443 -11.933196 21.527221 -3.103397 1.046944 3.801525 -1.149319 7.125000 0.000000 0.000000 
10.189059 15.986299 21.580093 179.158267 -13.182249 -149.018645 -13.961492 -32.439103 -51.261908 9.200448 22.297017 62.046658 -2.593168 -23.610083 -20.447413 2.259600 9.387100 27.013900 27.586649 17.260983 -49.785929 -8.903795 -22.898549 62.566758 -3.949559 -1.171857 -39.253564 -3.727400 11.788600 -34.988100 1.185686 0.608632 -5.283047 -0.374417 -0.122120 7.783666 20.230117 4.455570 11.641312 5.311500 2.836700 1.807000 -104.121359 -6.436459 33.080857 14.826664 -17.646113 -3.145999 -1.871574 0.662152 1.777408 -7.125000 0.000000 0.000000 96.365125 0.456474 19.330962 -12.317131 22.153224 -3.277616 0.935875 3.874260 -1.748907 7.125000 0.000000 0.000000 
10.195841 16.023598 21.540497 179.043170 -14.219490 -149.128999 -14.211365 -32.705453 -50.523100 8.950488 22.117219 61.262950 -2.607569 -23.511897 -20.288603 2.222800 9.315400 26.787100 27.977283 16.812194 -48.962803 -8.650025 -22.667935 61.785650 -3.991237 -1.048435 -39.443057 -3.360600 11.257100 -33.151800 1.160462 0.730042 -5.290893 -0.274638 -0.065143 7.876898 20.391408 4.362251 11.613068 5.454600 2.787300 1.774200 -103.853593 -6.180423 34.339615 15.129332 -18.165117 -3.322217 -1.871607 0.622744 1.520748 -7.125000 0.000000 0.000000 96.088303 -0.592225 20.305024 -12.791752 22.894562 -3.496412 0.832060 3.950369 -2.435987 7.125000 0.000000 0.000000 
10.203606 16.085944 21.490729 178.861570 -15.397566 -149.334622 -14.623208 -33.012800 -49.391384 8.579623 21.837745 60.078385 -2.621296 -23.229623 -19.945089 2.136900 9.145600 26.251900 28.554617 16.144653 -47.685474 -8.225163 -22.287195 60.475760 -3.974827 -1.270525 -39.505857 -3.051800 10.778400 -31.536200 1.175810 0.732491 -5.279430 -0.037799 -0.068716 8.012944 20.556909 4.302161 11.627299 5.629400 2.762900 1.768100 -103.647152 -6.003043 35.576021 15.434087 -18.679358 -3.501946 -1.881673 0.596284 1.293424 -7.125000 0.000000 0.000000 95.658034 -1.630133 21.350148 -13.261795 23.599226 -3.706864 0.773667 3.938377 -3.071381 7.125000 0.000000 0.000000 
10.203388 16.168307 21.438555 178.829095 -16.549468 -149.374551 -14.821698 -33.333750 -48.372997 8.113612 21.502342 58.570513 -2.618735 -22.687450 -19.426416 2.180700 9.232700 26.526000 29.199395 15.689672 -46.567535 -7.712574 -21.888604 58.927017 -3.833380 -2.335238 -39.314574 -3.100900 10.856600 -31.797900 1.149106 0.858480 -5.309596 0.011327 -0.008398 8.065317 20.712760 4.206128 11.649830 5.791400 2.719000 1.765100 -103.335382 -5.795990 36.822363 15.720234 -19.166418 -3.679121 -1.879314 0.598469 1.230622 -7.125000 0.000000 0.000000 95.468941 -2.842432 22.075699 -13.779340 24.375819 -3.950256 0.782229 3.898155 -3.374876 7.125000 0.000000 0.000000 
10.198028 16.279218 21.391194 178.744177 -17.817165 -149.337252 -14.972966 -33.888132 -47.384075 7.613924 21.128670 56.910044 -2.629124 -21.988717 -18.657375 2.299500 9.463900 27.257500 29.767039 15.103425 -45.538237 -7.079507 -21.406459 56.992793 -3.510479 -4.145120 -38.569688 -3.491400 11.451000 -33.816400 1.104201 0.928841 -5.414058 -0.082427 0.036156 7.878532 20.898630 4.170173 11.585098 5.962900 2.683300 1.674300 -102.958826 -5.345014 37.970314 15.994984 -19.640503 -3.855202 -1.883694 0.615273 1.331398 -7.125000 0.000000 0.000000 95.489629 -4.457041 22.718610 -14.388876 25.287245 -4.254106 0.823381 3.893443 -3.354756 7.125000 0.000000 0.000000 
10.194309 16.421850 21.342410 178.447760 -19.079396 -149.250813 -15.353129 -34.419596 -46.207117 7.018282 20.640730 54.850507 -2.701875 -21.136580 -17.277230 2.406100 9.665100 27.898800 30.033541 14.414324 -44.355372 -6.670555 -20.961187 55.602660 -3.479690 -3.702321 -38.264866 -2.921300 10.566600 -30.831800 1.140754 0.786772 -5.481102 0.119203 -0.037041 7.880091 21.068720 4.204055 11.591189 6.167100 2.698000 1.630100 -102.875201 -5.112777 38.607960 16.220738 -20.011070 -3.991429 -1.908364 0.617696 1.559689 -7.125000 0.000000 0.000000 95.177419 -5.677375 22.901350 -14.867526 25.959464 -4.482038 0.788328 3.848790 -3.125952 7.125000 0.000000 0.000000 
10.191793 16.589529 21.290236 178.238477 -20.157228 -149.048126 -15.688627 -34.626118 -45.030500 6.313901 20.043036 52.371608 -2.690528 -19.961771 -15.903138 2.044000 8.957100 25.661200 30.344223 13.976304 -43.340651 -5.862476 -20.313472 53.016838 -2.923615 -6.217878 -36.606477 -3.750300 11.820500 -35.099900 1.083031 0.909795 -5.573058 0.154440 0.014673 7.815607 21.285200 4.087940 11.505862 6.341200 2.628700 1.576800 -102.514335 -4.839966 39.572148 16.379344 -20.294850 -4.098944 -1.931267 0.634683 1.693638 -7.125000 0.000000 0.000000 95.294705 -7.002571 22.435019 -15.339963 26.631919 -4.720489 0.869231 3.760219 -2.322539 7.125000 0.000000 0.000000 
